<?xml version="1.0" encoding="iso-8859-1"?>
<!-- Uploaded to: SVG Repo, www.svgrepo.com, Generator: SVG Repo Mixer Tools -->
<svg height="800px" width="800px" version="1.1" id="Layer_1" xmlns="http://www.w3.org/2000/svg" xmlns:xlink="http://www.w3.org/1999/xlink" 
	 viewBox="0 0 511.981 511.981" xml:space="preserve">
<path style="fill:#E6E9ED;" d="M298.744,255.99c0-29.335,117.244-129.44,117.244-245.326c0-3.57-0.031-7.125-0.094-10.664h-319.8
	C96.032,3.539,96,7.094,96,10.664C96.001,126.55,213.254,226.655,213.254,255.99c0,29.343-117.253,129.433-117.253,245.334
	c0,3.562,0.031,7.125,0.094,10.656h319.8c0.062-3.531,0.094-7.094,0.094-10.656C415.988,385.423,298.744,285.333,298.744,255.99z"/>
<g style="opacity:0.3;">
	<path style="fill:#FFFFFF;" d="M415.988,10.664c0-3.57-0.031-7.125-0.094-10.664h-10.655c0.062,3.539,0.094,7.094,0.094,10.664
		c0,115.886-117.276,215.991-117.276,245.326c0,29.343,117.276,129.433,117.276,245.334c0,3.562-0.031,7.125-0.094,10.656h10.655
		c0.062-3.531,0.094-7.094,0.094-10.656c0-115.901-117.244-215.991-117.244-245.334C298.744,226.655,415.988,126.55,415.988,10.664z
		"/>
</g>
<g style="opacity:0.3;">
	<path style="fill:#FFFFFF;" d="M96.001,10.664c0-3.57,0.031-7.125,0.094-10.664h10.664c-0.062,3.539-0.094,7.094-0.094,10.664
		c0,115.886,117.253,215.991,117.253,245.326c0,29.343-117.253,129.433-117.253,245.334c0,3.562,0.031,7.125,0.094,10.656H96.095
		c-0.062-3.531-0.094-7.094-0.094-10.656c0-115.901,117.253-215.991,117.253-245.334C213.254,226.655,96.001,126.55,96.001,10.664z"
		/>
</g>
<path style="fill:#A85D5D;" d="M437.331,53.334c0,5.891-4.781,10.664-10.688,10.664H85.337c-5.89,0-10.671-4.773-10.671-10.664
	v-42.67C74.666,4.773,79.447,0,85.337,0h341.306c5.906,0,10.688,4.773,10.688,10.664V53.334z"/>
<path style="fill:#434A54;" d="M447.987,0H64.002c-5.89,0-10.664,4.773-10.664,10.664c0,5.89,4.773,10.671,10.664,10.671h383.985
	c5.891,0,10.656-4.781,10.656-10.671C458.643,4.773,453.878,0,447.987,0z"/>
<g>
	<path style="fill:#FFCE54;" d="M168.1,106.659c15.156,27.249,33.686,52.303,48.833,72.771
		c11.305,15.265,20.226,27.327,26.789,38.498c0.625,1.062,1.218,2.109,1.789,3.148v184.25c0,5.875,4.773,10.656,10.664,10.656
		c5.89,0,10.671-4.781,10.671-10.656V220.413c0.461-0.82,0.93-1.648,1.422-2.484c6.57-11.171,15.492-23.233,26.789-38.498
		c15.155-20.468,33.686-45.522,48.826-72.771H168.1V106.659z"/>
	<path style="fill:#FFCE54;" d="M367.615,449.107l-106.668-53.326c-3-1.516-6.538-1.516-9.538,0l-106.668,53.326
		c-4.422,2.219-6.742,7.188-5.609,11.999c1.141,4.812,5.438,8.219,10.382,8.219h213.32c4.952,0,9.249-3.406,10.374-8.219
		C374.365,456.295,372.037,451.326,367.615,449.107z"/>
</g>
<path style="fill:#A85D5D;" d="M437.331,501.324c0,5.875-4.781,10.656-10.688,10.656H85.337c-5.89,0-10.671-4.781-10.671-10.656
	v-42.687c0-5.874,4.781-10.655,10.671-10.655h341.306c5.906,0,10.688,4.781,10.688,10.655V501.324z"/>
<path style="fill:#434A54;" d="M458.643,501.324c0-5.78-4.562-10.468-10.281-10.655v-0.031H64.002
	c-5.89,0-10.664,4.781-10.664,10.687c0,5.875,4.773,10.656,10.664,10.656h384.36v-0.016
	C454.081,511.761,458.643,507.074,458.643,501.324z"/>
</svg>